# xmcd
#
# Track frame offsets: 
#        150
#        12389
#        26661
#        38652
#        51481
#        64573
#        76853
#        91113
#        104120
#        115375
#        128425
#        140708
#        153440
#        166131
#        177936
#        191125
#        203468
#        215840
#
# Disc length: 3059 seconds
#
# Revision: 1
# Processed by: cddbd v1.5.2PL0 Copyright (c) Steve Scherf et al.
# Submitted via: ExactAudioCopy v0.99pb4
#
DISCID=f70bf112
DTITLE=T-Bone Walker - Blues Legends Vol. 3
DYEAR=2007
DGENRE=Blues
TTITLE0=T-Bone Jumps Again
TTITLE1=She Had To Let Me Down
TTITLE2=She's My Old Time Used To Be
TTITLE3=Midnight Blues
TTITLE4=Long Lost Lover Blues
TTITLE5=Too Much Trouble Blues
TTITLE6=Goodbye Blues
TTITLE7=On Your Way Blues
TTITLE8=Lonesome Woman Blues
TTITLE9=Mean Old World
TTITLE10=No Worry Blues
TTITLE11=Don't Leave Me Baby (alt.)
TTITLE12=Don't Leave Me Baby
TTITLE13=Bobby Sox Baby
TTITLE14=I'm Gonna Find My Baby
TTITLE15=I'm In An Awful Mood
TTITLE16=I Know Your Wig Is Gone
TTITLE17=Call It Stormy Monday But Tuesday Is Just As Bad
EXTD=
EXTT0=
EXTT1=
EXTT2=
EXTT3=
EXTT4=
EXTT5=
EXTT6=
EXTT7=
EXTT8=
EXTT9=
EXTT10=
EXTT11=
EXTT12=
EXTT13=
EXTT14=
EXTT15=
EXTT16=
EXTT17=
PLAYORDER=
